<svg width="51" height="51" viewBox="0 0 51 51" fill="none" xmlns="http://www.w3.org/2000/svg">
<circle cx="25.5977" cy="25.3125" r="25" fill="#E2E5ED"/>
<g clip-path="url(#clip0_320_13361)">
<path d="M31.9477 30.0127C32.5477 30.0127 33.0977 30.5127 33.0977 31.1127V31.3127C32.9977 31.8627 32.5477 32.2127 31.9977 32.2127C31.4477 32.2127 30.9977 31.8127 30.8977 31.2627V31.0627C30.8477 30.5127 31.3477 30.0127 31.9477 30.0127ZM19.9477 30.0127C20.5477 30.0127 21.0977 30.5127 21.0977 31.1127V31.3127C20.9977 31.8627 20.5477 32.2127 19.9977 32.2127C19.4477 32.2127 18.9977 31.8127 18.8977 31.2627V31.0627C18.7977 30.5127 19.2977 30.0127 19.9477 30.0127Z" fill="black"/>
<path d="M14.8477 16.2124H27.6477C28.1977 16.2124 28.6477 16.6624 28.6477 17.2124V18.5124H32.3977L37.3477 26.0124V30.6124C37.3477 31.1624 36.8977 31.6124 36.3477 31.6124H35.1977V31.7124C34.8977 33.2624 33.5477 34.4124 31.9477 34.4124C30.3477 34.4124 28.9977 33.2624 28.6977 31.7124V31.6124H23.1477V31.7124C22.8477 33.2624 21.4977 34.4124 19.8977 34.4124C18.2977 34.4124 16.9477 33.2624 16.6477 31.7124V31.6124H14.7977C14.2477 31.6124 13.7977 31.1624 13.7977 30.6124V17.2124C13.8477 16.6624 14.2977 16.2124 14.8477 16.2124ZM29.6977 31.5624C29.8977 32.6624 30.8477 33.4124 31.9477 33.4124C33.0477 33.4124 33.9977 32.6124 34.1977 31.5124C34.1977 31.3624 34.2477 31.2624 34.2477 31.1124C34.2477 29.8624 33.2477 28.8124 31.9477 28.8124C30.6477 28.8124 29.6477 29.8124 29.6477 31.1124C29.6977 31.2624 29.6977 31.4124 29.6977 31.5624ZM28.6477 25.7124H35.9477L31.8477 19.5624H28.6477V25.7124ZM23.7977 22.5624V21.5624H21.9477V19.7124H20.9477V21.5624H19.0977V22.5624H20.9477V24.4124H21.9477V22.5624H23.7977ZM17.6977 31.5624C17.8977 32.6624 18.8477 33.4124 19.9477 33.4124C21.0477 33.4124 21.9977 32.6124 22.1977 31.5124C22.1977 31.3624 22.2477 31.2624 22.2477 31.1124C22.2477 29.8624 21.1977 28.8124 19.9477 28.8124C18.6977 28.8124 17.6477 29.8124 17.6477 31.1124C17.6477 31.2624 17.6477 31.4124 17.6977 31.5624Z" fill="black"/>
</g>
<defs>
<clipPath id="clip0_320_13361">
<rect width="24" height="24" fill="white" transform="matrix(-1 0 0 1 37.5977 13.3125)"/>
</clipPath>
</defs>
</svg>
